<svg id="Layer_1" data-name="Layer 1" xmlns="http://www.w3.org/2000/svg" viewBox="0 0 84 38"><defs><style>.cls-1{fill:#fff;}</style></defs><title>logo</title><path class="cls-1" d="M2.91,36.032a7.533,7.533,0,0,1-1.571-4.856q0-2.885.721-10.182T2.781,10.6a13.851,13.851,0,0,0-.67-4.829L0,1.784,0.206,1A50.573,50.573,0,0,1,10.558.1a26.724,26.724,0,0,1,.515,6.141,103.483,103.483,0,0,1-1,12.046,105.208,105.208,0,0,0-1,10.5q0,2.6,1.6,2.6t4.095-2.782a33.04,33.04,0,0,0,4.764-7.322A27.012,27.012,0,0,0,22.3,12.544L16.842,9.29a14.666,14.666,0,0,1,1.906-6.351A9.479,9.479,0,0,1,20.962.262L21.322,0a6.326,6.326,0,0,1,4.764,1.68,5.545,5.545,0,0,1,1.622,3.989q0,5.721-3.348,13.384a50.216,50.216,0,0,1-8.343,13.305Q11.022,38,6.8,38A4.8,4.8,0,0,1,2.91,36.032Z"/><path class="cls-1" d="M37.906,17.373a35.742,35.742,0,0,1-1.391,7.585,37.177,37.177,0,0,0-1.39,7.033q0,1.654.463,1.653a11.771,11.771,0,0,0,2.369-1l0.618-.315,0.875,1.837q-0.462.421-1.236,1.05a18.049,18.049,0,0,1-2.884,1.706A8.7,8.7,0,0,1,31.416,38a3.642,3.642,0,0,1-2.833-1.128,4.34,4.34,0,0,1-1.03-3.044A32.241,32.241,0,0,1,28.841,27a33.627,33.627,0,0,0,1.287-6.377,7.177,7.177,0,0,0-1.339-4.146l-0.463-.63,0.051-.682a35.3,35.3,0,0,1,8.859-.787A4.816,4.816,0,0,1,37.906,17.373ZM32.034,8.634A3.709,3.709,0,0,1,31,5.879a4.034,4.034,0,0,1,1.416-3.045,4.67,4.67,0,0,1,3.27-1.312,3.857,3.857,0,0,1,2.884,1.05,3.767,3.767,0,0,1,1.031,2.756,3.954,3.954,0,0,1-1.468,3.018,4.789,4.789,0,0,1-3.271,1.312A3.84,3.84,0,0,1,32.034,8.634Z"/><path class="cls-1" d="M57.167,30.5A6.433,6.433,0,0,1,54.308,35.9,10.72,10.72,0,0,1,47.794,38,9.569,9.569,0,0,1,42,36.426q-2.139-1.575-2.138-2.782,0-.734,1.8-2.388a8.661,8.661,0,0,1,3.038-2.02,13.755,13.755,0,0,1,4.223,6.14,1.748,1.748,0,0,0,1.906-1.837q0-2.414-4.172-6.849t-4.172-7.06a4.544,4.544,0,0,1,2.317-4.068,10.37,10.37,0,0,1,5.589-1.443A8.439,8.439,0,0,1,55.313,15.3a3.74,3.74,0,0,1,1.648,3.2q0,2.022-3.142,5.59,0.36,0.369.927,0.972a12.51,12.51,0,0,1,1.494,2.283A6.574,6.574,0,0,1,57.167,30.5Zm-2.78-11.967q0-1.837-2.472-1.837a3.544,3.544,0,0,0-1.957.5,1.389,1.389,0,0,0-.773,1.129q0,1.155,2.266,3.254l0.773,0.682Q54.386,20.365,54.386,18.528Z"/><path class="cls-1" d="M66.746,38a6.688,6.688,0,0,1-5.562-2.546,11.211,11.211,0,0,1-2.009-7.111A16.538,16.538,0,0,1,62.24,18.318a9.907,9.907,0,0,1,8.473-4.2l1.854,0.1a4.059,4.059,0,0,1,1.957-.472q4.068,0,4.069,7.821a26.115,26.115,0,0,0,4.274-.578l0.824-.21L84,22.831a23.43,23.43,0,0,1-4.584,1.313l-1.031.209a22.6,22.6,0,0,1-3.965,9.579A9.138,9.138,0,0,1,66.746,38Zm2.781-4.513q2.162,0,3.888-2.835a19.068,19.068,0,0,0,2.4-5.983q-5.512,0-5.511-4.2a7.5,7.5,0,0,1,.669-3.149l0.258-.525a1.135,1.135,0,0,0-.515-0.1,0.832,0.832,0,0,0-.463.1q-1.288.841-2.421,3.936a20.543,20.543,0,0,0-1.133,7.086Q66.695,33.486,69.528,33.487Z"/></svg>