<svg id="Layer_2" data-name="Layer 2" xmlns="http://www.w3.org/2000/svg" viewBox="0 0 160 160"><defs><style>.cls-1{fill:#b15bfd;}.cls-2{fill:#fff;stroke:#fff;stroke-miterlimit:10;stroke-width:0.5px;}</style></defs><title>services-icon-5</title><circle class="cls-1" cx="80" cy="80" r="80"/><path class="cls-2" d="M78.628,117.518a24.057,24.057,0,1,1,24.057-24.057A24.084,24.084,0,0,1,78.628,117.518Zm0-45.333A21.276,21.276,0,1,0,99.9,93.461,21.3,21.3,0,0,0,78.628,72.185Z"/><path class="cls-2" d="M110.245,126.469a1.387,1.387,0,0,1-.983-0.407L94.144,110.944a1.391,1.391,0,0,1,1.967-1.967l15.118,15.118A1.391,1.391,0,0,1,110.245,126.469Z"/><path class="cls-2" d="M78.582,94.086a7.59,7.59,0,1,1,7.59-7.59A7.6,7.6,0,0,1,78.582,94.086Zm0-12.4A4.808,4.808,0,1,0,83.39,86.5,4.814,4.814,0,0,0,78.582,81.688Z"/><path class="cls-2" d="M65.793,112.93a1.411,1.411,0,0,1-.2-0.014,1.391,1.391,0,0,1-1.179-1.575l1.365-9.491a8.776,8.776,0,0,1,6.47-7.166l2.165-.562a1.391,1.391,0,0,1,.7,2.692l-2.165.562a5.991,5.991,0,0,0-4.418,4.885l-1.363,9.476A1.391,1.391,0,0,1,65.793,112.93Z"/><path class="cls-2" d="M91.749,112.93a1.391,1.391,0,0,1-1.367-1.145l-1.705-9.491-0.005-.033a5.991,5.991,0,0,0-4.418-4.885l-2.165-.562a1.391,1.391,0,0,1,.7-2.692l2.165,0.562a8.77,8.77,0,0,1,6.465,7.134l1.7,9.475A1.392,1.392,0,0,1,91.749,112.93Z"/><path class="cls-2" d="M78.523,100.564a1.391,1.391,0,0,1-1.391-1.391V98.567a1.391,1.391,0,1,1,2.781,0v0.607A1.391,1.391,0,0,1,78.523,100.564Z"/><path class="cls-2" d="M78.523,111.351a1.391,1.391,0,0,1-1.391-1.391V103.5a1.391,1.391,0,0,1,2.781,0v6.457A1.391,1.391,0,0,1,78.523,111.351Z"/><path class="cls-2" d="M48.236,70.567a6.478,6.478,0,1,1,6.478-6.478A6.485,6.485,0,0,1,48.236,70.567Zm0-10.174a3.7,3.7,0,1,0,3.7,3.7A3.7,3.7,0,0,0,48.236,60.393Z"/><path class="cls-2" d="M37.741,87.181a1.408,1.408,0,0,1-.2-0.014,1.391,1.391,0,0,1-1.179-1.575l1.12-7.789a7.452,7.452,0,0,1,5.493-6.086l1.776-.461a1.391,1.391,0,0,1,.7,2.692l-1.776.461a4.667,4.667,0,0,0-3.442,3.805l-1.118,7.774A1.391,1.391,0,0,1,37.741,87.181Z"/><path class="cls-2" d="M55.962,76.056a1.386,1.386,0,0,1-.989-0.413,4.671,4.671,0,0,0-2.146-1.235l-1.777-.461a1.391,1.391,0,1,1,.7-2.692l1.777,0.461a7.453,7.453,0,0,1,3.424,1.971A1.391,1.391,0,0,1,55.962,76.056Z"/><path class="cls-2" d="M105.158,70.567a6.478,6.478,0,1,1,6.478-6.478A6.485,6.485,0,0,1,105.158,70.567Zm0-10.174a3.7,3.7,0,1,0,3.7,3.7A3.7,3.7,0,0,0,105.158,60.393Z"/><path class="cls-2" d="M99,74.928a1.391,1.391,0,0,1-.637-2.628,7.46,7.46,0,0,1,1.532-.584l1.776-.461a1.391,1.391,0,0,1,.7,2.692l-1.777.461a4.676,4.676,0,0,0-.96.366A1.385,1.385,0,0,1,99,74.928Z"/><path class="cls-2" d="M115.963,87.181a1.391,1.391,0,0,1-1.367-1.145l-1.4-7.789-0.005-.033a4.667,4.667,0,0,0-3.442-3.805l-1.777-.461a1.391,1.391,0,0,1,.7-2.692l1.777,0.461a7.446,7.446,0,0,1,5.488,6.054l1.4,7.773A1.392,1.392,0,0,1,115.963,87.181Z"/><path class="cls-2" d="M72.228,54.571a6.478,6.478,0,1,1,6.478-6.478A6.485,6.485,0,0,1,72.228,54.571Zm0-10.174a3.7,3.7,0,1,0,3.7,3.7A3.7,3.7,0,0,0,72.228,44.4Z"/><path class="cls-2" d="M61.961,69.6a1.413,1.413,0,0,1-.2-0.014,1.391,1.391,0,0,1-1.179-1.575l0.893-6.209a7.452,7.452,0,0,1,5.493-6.086l1.777-.461a1.391,1.391,0,0,1,.7,2.692l-1.777.461a4.667,4.667,0,0,0-3.442,3.805l-0.891,6.194A1.391,1.391,0,0,1,61.961,69.6Z"/><path class="cls-2" d="M81.956,65.186a1.391,1.391,0,0,1-1.367-1.145l-0.322-1.791-0.005-.033a4.667,4.667,0,0,0-3.442-3.805l-1.776-.461a1.391,1.391,0,0,1,.7-2.692l1.776,0.461a7.446,7.446,0,0,1,5.488,6.054l0.319,1.775A1.392,1.392,0,0,1,81.956,65.186Z"/><path class="cls-2" d="M113.1,54.571a6.478,6.478,0,1,1,6.478-6.478A6.485,6.485,0,0,1,113.1,54.571Zm0-10.174a3.7,3.7,0,1,0,3.7,3.7A3.7,3.7,0,0,0,113.1,44.4Z"/><path class="cls-2" d="M123.91,71.184a1.391,1.391,0,0,1-1.367-1.145l-1.4-7.789-0.005-.033a4.667,4.667,0,0,0-3.442-3.805l-1.777-.461a1.391,1.391,0,0,1,.7-2.692L118.4,55.72a7.446,7.446,0,0,1,5.488,6.054l1.4,7.773A1.392,1.392,0,0,1,123.91,71.184Z"/><path class="cls-2" d="M48.819,47.772A6.478,6.478,0,1,1,55.3,41.294,6.485,6.485,0,0,1,48.819,47.772Zm0-10.174a3.7,3.7,0,1,0,3.7,3.7A3.7,3.7,0,0,0,48.819,37.6Z"/><path class="cls-2" d="M38.325,64.385a1.408,1.408,0,0,1-.2-0.014A1.391,1.391,0,0,1,36.947,62.8l1.12-7.789a7.453,7.453,0,0,1,5.493-6.086l1.777-.461a1.391,1.391,0,1,1,.7,2.692l-1.777.461a4.668,4.668,0,0,0-3.442,3.805L39.7,63.192A1.391,1.391,0,0,1,38.325,64.385Z"/><path class="cls-2" d="M58.908,60.393a1.391,1.391,0,0,1-1.367-1.145l-0.682-3.8-0.005-.033a4.668,4.668,0,0,0-3.442-3.805l-1.776-.461a1.391,1.391,0,0,1,.7-2.692l1.776,0.461A7.447,7.447,0,0,1,59.6,54.975l0.679,3.782A1.392,1.392,0,0,1,58.908,60.393Z"/><path class="cls-2" d="M95.277,47.772a6.478,6.478,0,1,1,6.478-6.478A6.485,6.485,0,0,1,95.277,47.772Zm0-10.174a3.7,3.7,0,1,0,3.7,3.7A3.7,3.7,0,0,0,95.277,37.6Z"/><path class="cls-2" d="M85.357,60.393a1.413,1.413,0,0,1-.2-0.014A1.391,1.391,0,0,1,83.979,58.8l0.546-3.8a7.452,7.452,0,0,1,5.493-6.087l1.777-.461a1.391,1.391,0,1,1,.7,2.692l-1.777.461a4.667,4.667,0,0,0-3.442,3.805L86.732,59.2A1.391,1.391,0,0,1,85.357,60.393Z"/><path class="cls-2" d="M104.683,56.6a1.391,1.391,0,0,1-1.373-1.178,4.668,4.668,0,0,0-3.442-3.805l-1.776-.461a1.391,1.391,0,0,1,.7-2.692l1.776,0.461a7.447,7.447,0,0,1,5.491,6.071A1.391,1.391,0,0,1,104.9,56.58,1.408,1.408,0,0,1,104.683,56.6Z"/></svg>