<svg id="Layer_2" data-name="Layer 2" xmlns="http://www.w3.org/2000/svg" viewBox="0 0 160 160"><defs><style>.cls-1{fill:#b15bfd;}.cls-2{fill:#fff;stroke:#fff;stroke-miterlimit:10;stroke-width:0.5px;}</style></defs><title>services-icon-4</title><circle class="cls-1" cx="80" cy="80" r="80"/><path class="cls-2" d="M79.95,103.029A10.234,10.234,0,1,1,90.184,92.795,10.246,10.246,0,0,1,79.95,103.029Zm0-17.356a7.122,7.122,0,1,0,7.121,7.122A7.13,7.13,0,0,0,79.95,85.673Z"/><path class="cls-2" d="M62.046,129.408a1.581,1.581,0,0,1-.224-0.016A1.556,1.556,0,0,1,60.5,127.63l1.911-13.287a11.893,11.893,0,0,1,8.768-9.709l3.03-.787A1.556,1.556,0,0,1,75,106.86l-3.03.787a8.777,8.777,0,0,0-6.472,7.156l-1.908,13.27A1.557,1.557,0,0,1,62.046,129.408Z"/><path class="cls-2" d="M98.383,129.408a1.557,1.557,0,0,1-1.53-1.281L94.466,114.84,94.46,114.8a8.778,8.778,0,0,0-6.472-7.156l-3.03-.787a1.556,1.556,0,0,1,.782-3.013l3.03,0.787a11.888,11.888,0,0,1,8.763,9.673l2.384,13.269A1.558,1.558,0,0,1,98.383,129.408Z"/><path class="cls-2" d="M79.867,112.634a1.556,1.556,0,0,1-1.556-1.556v-1.386a1.556,1.556,0,0,1,3.113,0v1.386A1.556,1.556,0,0,1,79.867,112.634Z"/><path class="cls-2" d="M79.867,129.407a1.556,1.556,0,0,1-1.556-1.556V116.6a1.556,1.556,0,0,1,3.113,0v11.249A1.556,1.556,0,0,1,79.867,129.407Z"/><path class="cls-2" d="M56.853,117.432a1.549,1.549,0,0,1-.776-0.208A48.4,48.4,0,0,1,31.8,75.244a48.417,48.417,0,1,1,90.143,24.572,48.686,48.686,0,0,1-17.558,17.39,1.556,1.556,0,1,1-1.556-2.7,45.286,45.286,0,0,0,22.691-39.266A45.3,45.3,0,1,0,41.177,98.249a45.568,45.568,0,0,0,16.454,16.278A1.557,1.557,0,0,1,56.853,117.432Z"/><path class="cls-2" d="M59.014,110.371a1.548,1.548,0,0,1-.831-0.241,41.255,41.255,0,1,1,44.088-.016,1.556,1.556,0,1,1-1.666-2.629,38.143,38.143,0,1,0-40.758.015A1.556,1.556,0,0,1,59.014,110.371Z"/><path class="cls-2" d="M80.214,77.317a1.556,1.556,0,0,1-.991-0.356l-10.9-9a1.556,1.556,0,0,1,1.981-2.4l9.635,7.952L98.818,47.826a1.556,1.556,0,0,1,2.508,1.844L81.468,76.683A1.556,1.556,0,0,1,80.214,77.317Z"/><path class="cls-2" d="M80.214,42.625a1.556,1.556,0,0,1-1.556-1.556V35.545a1.556,1.556,0,1,1,3.113,0v5.525A1.556,1.556,0,0,1,80.214,42.625Z"/><path class="cls-2" d="M45.523,77.317H40.828a1.556,1.556,0,0,1,0-3.113h4.695A1.556,1.556,0,1,1,45.523,77.317Z"/><path class="cls-2" d="M119.808,77.317h-4.9a1.556,1.556,0,0,1,0-3.113h4.9A1.556,1.556,0,0,1,119.808,77.317Z"/></svg>