<svg id="Layer_2" data-name="Layer 2" xmlns="http://www.w3.org/2000/svg" viewBox="0 0 160 160"><defs><style>.cls-1{fill:#b15bfd;}.cls-2{fill:#fff;stroke:#fff;stroke-miterlimit:10;stroke-width:0.5px;}</style></defs><title>services-icon-6</title><circle class="cls-1" cx="80" cy="80" r="80"/><path class="cls-2" d="M58.44,94.112A11.51,11.51,0,1,1,69.95,82.6,11.523,11.523,0,0,1,58.44,94.112Zm0-20.178A8.668,8.668,0,1,0,67.108,82.6,8.678,8.678,0,0,0,58.44,73.935Z"/><path class="cls-2" d="M37.626,123.736a1.441,1.441,0,0,1-.2-0.015,1.421,1.421,0,0,1-1.2-1.609l2.222-15.447A13.438,13.438,0,0,1,48.346,95.7l3.523-.915a1.421,1.421,0,1,1,.714,2.751l-3.523.915a10.592,10.592,0,0,0-7.811,8.636L39.03,122.517A1.421,1.421,0,0,1,37.626,123.736Z"/><path class="cls-2" d="M79.871,123.736a1.421,1.421,0,0,1-1.4-1.17L75.7,107.119l-0.006-.034a10.593,10.593,0,0,0-7.811-8.636l-3.523-.915a1.421,1.421,0,0,1,.714-2.751L68.6,95.7a13.432,13.432,0,0,1,9.9,10.934l2.772,15.431A1.422,1.422,0,0,1,79.871,123.736Z"/><path class="cls-2" d="M58.345,103.478a1.421,1.421,0,0,1-1.421-1.421V99.1a1.421,1.421,0,0,1,2.842,0v2.959A1.421,1.421,0,0,1,58.345,103.478Z"/><path class="cls-2" d="M58.345,123.736a1.421,1.421,0,0,1-1.421-1.421V106.672a1.421,1.421,0,1,1,2.842,0v15.643A1.421,1.421,0,0,1,58.345,123.736Z"/><path class="cls-2" d="M86.571,115.95c-1.154,0-2.32-.048-3.465-0.142a1.421,1.421,0,1,1,.233-2.832c1.068,0.088,2.155.133,3.232,0.133A38.758,38.758,0,1,0,47.954,71a1.421,1.421,0,0,1-2.831-.242A41.6,41.6,0,1,1,86.571,115.95Z"/><path class="cls-2" d="M86.571,115.915a1.421,1.421,0,0,1-1.421-1.421V34.169a1.421,1.421,0,0,1,2.842,0v80.325A1.421,1.421,0,0,1,86.571,115.915Z"/><path class="cls-2" d="M126.733,75.752H74.127a1.421,1.421,0,1,1,0-2.842h52.607A1.421,1.421,0,1,1,126.733,75.752Z"/><path class="cls-2" d="M86.571,99.93c-1.637,0-3.3-.049-4.935-0.147a1.421,1.421,0,0,1,.168-2.837c1.582,0.094,3.186.142,4.766,0.142,21.117,0,35.673-8.449,35.817-8.534A1.421,1.421,0,0,1,123.836,91a59.916,59.916,0,0,1-10.362,4.488A84.456,84.456,0,0,1,86.571,99.93Z"/><path class="cls-2" d="M123.11,59.916a1.414,1.414,0,0,1-.722-0.2h0c-0.145-.085-14.7-8.534-35.817-8.534S50.9,59.632,50.754,59.717a1.421,1.421,0,0,1-1.447-2.446,59.917,59.917,0,0,1,10.362-4.488,83.692,83.692,0,0,1,53.805,0,59.916,59.916,0,0,1,10.362,4.488A1.421,1.421,0,0,1,123.11,59.916Z"/><path class="cls-2" d="M104.622,111.585a1.421,1.421,0,0,1-1.165-2.233,67.427,67.427,0,0,0,0-70.092,1.421,1.421,0,0,1,2.332-1.623,55.044,55.044,0,0,1,5.192,10.191,70.763,70.763,0,0,1,0,52.958,55.044,55.044,0,0,1-5.192,10.191A1.419,1.419,0,0,1,104.622,111.585Z"/><path class="cls-2" d="M58.819,68.561a1.45,1.45,0,0,1-.15-0.008A1.421,1.421,0,0,1,57.4,66.991c1.847-17.554,9.619-28.881,9.948-29.355a1.421,1.421,0,0,1,2.332,1.624A65.757,65.757,0,0,0,60.23,67.289,1.421,1.421,0,0,1,58.819,68.561Z"/></svg>