<svg id="Layer_2" data-name="Layer 2" xmlns="http://www.w3.org/2000/svg" viewBox="0 0 160 160"><defs><style>.cls-1{fill:#b15bfd;}.cls-2{fill:#fff;stroke:#fff;stroke-miterlimit:10;stroke-width:0.5px;}</style></defs><title>services-icon-3</title><circle class="cls-1" cx="80" cy="80" r="80"/><path class="cls-2" d="M57.022,68.476a7.9,7.9,0,1,1,7.9-7.9A7.905,7.905,0,0,1,57.022,68.476Zm0-12.978A5.081,5.081,0,1,0,62.1,60.579,5.087,5.087,0,0,0,57.022,55.5Z"/><path class="cls-2" d="M66.666,121.024a4.737,4.737,0,0,1-4.731-4.731v-15.01a1.4,1.4,0,0,1,.017-0.219,0.839,0.839,0,0,0-.739-0.965L51.44,99.053a9.8,9.8,0,0,1-8.614-11.4l2.222-12.947A20.872,20.872,0,0,1,50,64.392a1.408,1.408,0,0,1,2.108,1.866,18.059,18.059,0,0,0-4.282,8.925L45.6,88.13a6.982,6.982,0,0,0,6.139,8.124L61.512,97.3a3.653,3.653,0,0,1,3.238,4.079v14.913a1.916,1.916,0,0,0,3.833,0V95.358A2.572,2.572,0,0,0,66.92,92.95l-12.8-2.017a1.407,1.407,0,1,1,.438-2.781L67.486,90.19a1.411,1.411,0,0,1,.226.055A5.384,5.384,0,0,1,71.4,95.358v20.934A4.737,4.737,0,0,1,66.666,121.024Z"/><path class="cls-2" d="M58.17,104.007H52.257A15.552,15.552,0,0,1,36.723,88.473V66.736a1.407,1.407,0,0,1,2.815,0V88.473a12.734,12.734,0,0,0,12.72,12.72H58.17A1.407,1.407,0,1,1,58.17,104.007Z"/><path class="cls-2" d="M38.671,121.265a1.408,1.408,0,0,1-.327-2.777l10.547-2.531v-13.3a1.407,1.407,0,0,1,2.815,0v14.406a1.408,1.408,0,0,1-1.079,1.369L39,121.225A1.406,1.406,0,0,1,38.671,121.265Z"/><path class="cls-2" d="M64.06,121.024A1.411,1.411,0,0,1,63.8,121l-13.835-2.55a1.408,1.408,0,0,1,.51-2.768l13.835,2.55A1.408,1.408,0,0,1,64.06,121.024Z"/><path class="cls-2" d="M69.512,88.505H66.89a1.407,1.407,0,0,1,0-2.815h2.622a1.967,1.967,0,0,0,0-3.934H60.981a1.407,1.407,0,0,1-1.407-1.407V71.156a1.407,1.407,0,1,1,2.815,0v7.786h7.123A4.782,4.782,0,0,1,69.512,88.505Z"/><path class="cls-2" d="M62.75,88.505H59.2a6.111,6.111,0,0,1-6.1-6.1V77.515a1.407,1.407,0,0,1,2.815,0V82.4A3.293,3.293,0,0,0,59.2,85.69H62.75A1.407,1.407,0,0,1,62.75,88.505Z"/><path class="cls-2" d="M104.363,68.476a7.9,7.9,0,1,1,7.9-7.9A7.905,7.905,0,0,1,104.363,68.476Zm0-12.978a5.081,5.081,0,1,0,5.081,5.081A5.087,5.087,0,0,0,104.363,55.5Z"/><path class="cls-2" d="M94.719,121.024a4.737,4.737,0,0,1-4.731-4.731V95.358a5.384,5.384,0,0,1,3.685-5.114A1.411,1.411,0,0,1,93.9,90.19l12.923-2.037a1.407,1.407,0,0,1,.438,2.781l-12.8,2.017A2.572,2.572,0,0,0,92.8,95.358v20.934a1.916,1.916,0,0,0,3.833,0V101.379A3.653,3.653,0,0,1,99.873,97.3l9.772-1.046a6.983,6.983,0,0,0,6.139-8.124l-2.222-12.947a18.059,18.059,0,0,0-4.282-8.925,1.408,1.408,0,0,1,2.108-1.866,20.872,20.872,0,0,1,4.949,10.315l2.222,12.947a9.8,9.8,0,0,1-8.614,11.4l-9.772,1.046a0.839,0.839,0,0,0-.739.965,1.4,1.4,0,0,1,.017.219v15.01A4.737,4.737,0,0,1,94.719,121.024Z"/><path class="cls-2" d="M100.3,88.505H61.089a1.407,1.407,0,0,1,0-2.815H100.3A1.407,1.407,0,0,1,100.3,88.505Z"/><path class="cls-2" d="M109.128,104.007h-5.912a1.407,1.407,0,0,1,0-2.815h5.912a12.734,12.734,0,0,0,12.72-12.72V66.736a1.407,1.407,0,1,1,2.815,0V88.473A15.552,15.552,0,0,1,109.128,104.007Z"/><path class="cls-2" d="M122.714,121.265a1.406,1.406,0,0,1-.33-0.039l-11.626-2.79a1.408,1.408,0,0,1-1.079-1.369V102.661a1.407,1.407,0,0,1,2.815,0v13.3l10.547,2.531A1.408,1.408,0,0,1,122.714,121.265Z"/><path class="cls-2" d="M97.325,121.024a1.408,1.408,0,0,1-.253-2.792l13.835-2.55a1.408,1.408,0,0,1,.51,2.768L97.582,121A1.426,1.426,0,0,1,97.325,121.024Z"/><path class="cls-2" d="M94.495,88.505H91.873a4.782,4.782,0,0,1,0-9.564H99V71.156a1.407,1.407,0,0,1,2.815,0v9.193a1.407,1.407,0,0,1-1.407,1.407H91.873a1.967,1.967,0,0,0,0,3.934h2.622A1.407,1.407,0,0,1,94.495,88.505Z"/><path class="cls-2" d="M102.184,88.505h-3.55a1.407,1.407,0,0,1,0-2.815h3.55a3.293,3.293,0,0,0,3.289-3.289V77.515a1.407,1.407,0,1,1,2.815,0V82.4A6.111,6.111,0,0,1,102.184,88.505Z"/><path class="cls-2" d="M94.451,54.151a1.4,1.4,0,0,1-.773-0.231l-3.723-2.448a10.01,10.01,0,0,1-2.325.273h-13.2a10,10,0,1,1,0-19.995h13.2a10.009,10.009,0,0,1,10,10h0a9.965,9.965,0,0,1-2.917,7.058L95.8,52.33A1.408,1.408,0,0,1,94.451,54.151ZM90.2,48.539a1.407,1.407,0,0,1,.773.231l0.983,0.647-0.2-.635a1.408,1.408,0,0,1,.448-1.5A7.182,7.182,0,0,0,87.63,34.565h-13.2a7.182,7.182,0,1,0,0,14.365h13.2a7.177,7.177,0,0,0,2.147-.326A1.411,1.411,0,0,1,90.2,48.539Z"/><path class="cls-2" d="M88.5,78.922a1.4,1.4,0,0,1-1.073-.5L82.387,72.5A4.473,4.473,0,0,1,82.82,66.3a4.448,4.448,0,0,1,6.283.373l4.067,4.586,3.148-3.238a1.408,1.408,0,1,1,2.019,1.962l-4.2,4.325a1.408,1.408,0,0,1-2.062-.047L87,68.537A1.633,1.633,0,0,0,84.69,68.4a1.642,1.642,0,0,0-.159,2.278L89.571,76.6A1.407,1.407,0,0,1,88.5,78.922Z"/></svg>