<svg id="Layer_2" data-name="Layer 2" xmlns="http://www.w3.org/2000/svg" viewBox="0 0 160 160"><defs><style>.cls-1{fill:#b15bfd;}.cls-2{fill:#fff;stroke:#fff;stroke-miterlimit:10;stroke-width:0.5px;}</style></defs><title>services-icon-2</title><circle class="cls-1" cx="80" cy="80" r="80"/><path class="cls-2" d="M115.6,52.612A1.4,1.4,0,0,1,114.6,52.2l-3.566-3.566a1.4,1.4,0,0,1,1.984-1.984l2.574,2.574L126.64,38.183a1.4,1.4,0,0,1,1.984,1.984L116.588,52.2A1.4,1.4,0,0,1,115.6,52.612Z"/><path class="cls-2" d="M115.512,58.42A10.229,10.229,0,1,1,119.081,38.6a1.4,1.4,0,1,1-.978,2.629,7.421,7.421,0,1,0,3.979,3.5,1.4,1.4,0,1,1,2.48-1.31A10.232,10.232,0,0,1,115.512,58.42Z"/><path class="cls-2" d="M115.6,82.219a1.4,1.4,0,0,1-.992-0.411l-3.566-3.566a1.4,1.4,0,0,1,1.984-1.984l2.574,2.574L126.64,67.79a1.4,1.4,0,0,1,1.984,1.984L116.588,81.809A1.4,1.4,0,0,1,115.6,82.219Z"/><path class="cls-2" d="M115.512,88.027a10.229,10.229,0,1,1,3.569-19.817,1.4,1.4,0,0,1-.979,2.629,7.421,7.421,0,1,0,3.979,3.5,1.4,1.4,0,0,1,2.48-1.31A10.231,10.231,0,0,1,115.512,88.027Z"/><path class="cls-2" d="M115.6,111.827a1.4,1.4,0,0,1-.992-0.411l-3.566-3.566a1.4,1.4,0,0,1,1.984-1.984l2.574,2.574L126.64,97.4a1.4,1.4,0,0,1,1.984,1.984l-12.035,12.035A1.4,1.4,0,0,1,115.6,111.827Z"/><path class="cls-2" d="M115.512,117.634a10.229,10.229,0,1,1,3.569-19.817,1.4,1.4,0,0,1-.979,2.629,7.421,7.421,0,1,0,3.979,3.5,1.4,1.4,0,1,1,2.48-1.31A10.232,10.232,0,0,1,115.512,117.634Z"/><path class="cls-2" d="M36.282,118.206a1.425,1.425,0,0,1-.2-0.014,1.4,1.4,0,0,1-1.189-1.588L38.27,93.121a19.669,19.669,0,0,1,14.5-16.047l5.344-1.388a4.175,4.175,0,0,0,3.037-4.007V69.213a1.4,1.4,0,1,1,2.8,0v2.465a6.988,6.988,0,0,1-5.1,6.713l-0.023.006-5.357,1.391A16.861,16.861,0,0,0,41.044,93.535L37.669,117A1.4,1.4,0,0,1,36.282,118.206Z"/><path class="cls-2" d="M100.825,118.206a1.4,1.4,0,0,1-1.386-1.2L96.061,93.52a16.855,16.855,0,0,0-12.43-13.731L78.275,78.4l-0.023-.006a6.988,6.988,0,0,1-5.1-6.713V69.213a1.4,1.4,0,1,1,2.8,0v2.465a4.175,4.175,0,0,0,3.038,4.008l5.344,1.388a19.663,19.663,0,0,1,14.5,16.032l3.38,23.5a1.4,1.4,0,0,1-1.189,1.588A1.423,1.423,0,0,1,100.825,118.206Z"/><path class="cls-2" d="M67.927,119.354h0a1.4,1.4,0,0,1-1.362-1.087L57.114,77.355a1.4,1.4,0,0,1,2.733-.631l8.1,35.083L76.3,76.715a1.4,1.4,0,0,1,2.729.649l-9.735,40.912A1.4,1.4,0,0,1,67.927,119.354Z"/><path class="cls-2" d="M64.034,101.412a1.4,1.4,0,0,1-1.345-1.8L66.8,85.79a1.4,1.4,0,0,1,1.344-1h0.007A1.4,1.4,0,0,1,69.493,85.8l3.964,13.819a1.4,1.4,0,1,1-2.7.774L68.12,91.191l-2.742,9.219A1.4,1.4,0,0,1,64.034,101.412Z"/><path class="cls-2" d="M68.145,87.593H68.137A1.4,1.4,0,0,1,67,87l-2.911-4.127A1.4,1.4,0,0,1,64.13,81.2l2.911-3.718a1.4,1.4,0,0,1,1.1-.538h0a1.4,1.4,0,0,1,1.1.537l2.946,3.759a1.4,1.4,0,0,1,.034,1.685L69.282,87.01A1.4,1.4,0,0,1,68.145,87.593Zm-1.164-5.486,1.177,1.668,1.179-1.635-1.191-1.52Z"/><path class="cls-2" d="M68.145,79.748a1.4,1.4,0,0,1-.742-0.213L61.289,75.72a1.4,1.4,0,1,1,1.485-2.379L68.162,76.7l5.673-3.378a1.4,1.4,0,0,1,1.435,2.41l-6.407,3.815A1.4,1.4,0,0,1,68.145,79.748Z"/><path class="cls-2" d="M60.877,89.118l-0.08,0-9-.507a1.4,1.4,0,0,1-1.252-1.844l2.916-8.753a1.4,1.4,0,0,1,2.661.887l-2.336,7.012,7.17,0.4A1.4,1.4,0,0,1,60.877,89.118Z"/><path class="cls-2" d="M67.928,119.354a1.4,1.4,0,0,1-1.225-.718L52.424,93.1a1.4,1.4,0,0,1,.011-1.389l2.726-4.7a1.4,1.4,0,1,1,2.426,1.408l-2.325,4,13.889,24.843A1.4,1.4,0,0,1,67.928,119.354Z"/><path class="cls-2" d="M75.342,89.118a1.4,1.4,0,0,1-.078-2.8l7.17-.4L80.1,78.9a1.4,1.4,0,0,1,2.661-.887l2.916,8.753a1.4,1.4,0,0,1-1.252,1.844l-9,.507Z"/><path class="cls-2" d="M68.29,119.354a1.4,1.4,0,0,1-1.223-2.087L80.956,92.425l-2.325-4a1.4,1.4,0,0,1,2.426-1.408l2.726,4.7a1.4,1.4,0,0,1,.011,1.389l-14.279,25.54A1.4,1.4,0,0,1,68.29,119.354Z"/><path class="cls-2" d="M68.538,72.615c-5.253,0-10.178-4.588-11.212-10.446a18.093,18.093,0,0,0-.944-3.53,12.657,12.657,0,0,1-.6-2.028,1.4,1.4,0,0,1,2.75-.552,10.1,10.1,0,0,0,.488,1.617,20.763,20.763,0,0,1,1.072,4.005c0.791,4.482,4.582,8.128,8.45,8.128a9.215,9.215,0,0,0,8.62-8.068,36.288,36.288,0,0,1,1.1-5.061,23.4,23.4,0,0,0,.78-3.527,1.4,1.4,0,0,1,2.787.315,25.836,25.836,0,0,1-.861,3.951,33.486,33.486,0,0,0-1.025,4.689,12.275,12.275,0,0,1-4.015,7.539A11.328,11.328,0,0,1,68.538,72.615Z"/><path class="cls-2" d="M53.393,58.563a1.4,1.4,0,0,1-1.376-1.132c-1.62-8.251,1.468-17.192,7.508-21.741a13.829,13.829,0,0,1,15.1-1.29,10,10,0,0,1,6.508,3.754c2.775,3.534,3.465,8.956,2.049,16.115a1.4,1.4,0,0,1-2.093.933c-0.148-.088-3.38-2.062-6.577-8.015A46.641,46.641,0,0,1,53.724,58.523,1.406,1.406,0,0,1,53.393,58.563ZM67.961,35.579a11.1,11.1,0,0,0-6.748,2.351c-4.86,3.661-7.492,10.683-6.677,17.48A43.626,43.626,0,0,0,73.82,43.879a1.4,1.4,0,0,1,2.326.325,26.354,26.354,0,0,0,4.681,7.105c0.663-5.057.017-8.977-1.9-11.422a7.168,7.168,0,0,0-4.761-2.715,1.4,1.4,0,0,1-.578-0.153A12.3,12.3,0,0,0,67.961,35.579Z"/><path class="cls-2" d="M91.914,105.809H83.265a1.4,1.4,0,1,1,0-2.8h8.649A1.4,1.4,0,1,1,91.914,105.809Z"/></svg>