<svg id="Layer_2" data-name="Layer 2" xmlns="http://www.w3.org/2000/svg" viewBox="0 0 160 160"><defs><style>.cls-1{fill:#b15bfd;}.cls-2{fill:#fff;stroke:#fff;stroke-miterlimit:10;}</style></defs><title>services-icon-1</title><circle class="cls-1" cx="80" cy="80" r="80"/><path class="cls-2" d="M80.036,90.538A11.651,11.651,0,1,1,91.81,78.888,11.651,11.651,0,0,1,80.036,90.538Zm0-20.169a8.519,8.519,0,1,0,8.606,8.518A8.519,8.519,0,0,0,80.036,70.369Z"/><path class="cls-2" d="M59.008,121.191a1.624,1.624,0,0,1-.227-0.016,1.568,1.568,0,0,1-1.342-1.766V119.4l2.244-15.44A13.631,13.631,0,0,1,69.8,92.882l3.56-.914a1.584,1.584,0,0,1,1.929,1.122A1.564,1.564,0,0,1,74.162,95l-0.011,0-3.56.914a10.483,10.483,0,0,0-7.782,8.514l-2.235,15.422A1.577,1.577,0,0,1,59.008,121.191Z"/><path class="cls-2" d="M101.686,121.191a1.578,1.578,0,0,1-1.559-1.291l-2.8-15.437-0.006-.037a10.483,10.483,0,0,0-7.785-8.516L85.978,95a1.564,1.564,0,0,1-1.137-1.9l0-.011a1.585,1.585,0,0,1,1.929-1.122l3.56,0.914a13.626,13.626,0,0,1,10.117,11.046l2.8,15.422a1.567,1.567,0,0,1-1.27,1.817h-0.008A1.607,1.607,0,0,1,101.686,121.191Z"/><path class="cls-2" d="M79.939,101.7a1.574,1.574,0,0,1-1.582-1.565h0V98.521a1.582,1.582,0,1,1,3.165,0v1.614a1.574,1.574,0,0,1-1.582,1.565h0Z"/><path class="cls-2" d="M79.939,121.191a1.574,1.574,0,0,1-1.582-1.565h0V106.553a1.582,1.582,0,0,1,3.165,0v13.072a1.574,1.574,0,0,1-1.581,1.566h0Z"/><path class="cls-2" d="M80.58,59.031A1.574,1.574,0,0,1,79,57.465h0V32.391a1.582,1.582,0,1,1,3.165,0V57.464a1.574,1.574,0,0,1-1.581,1.566h0Z"/><path class="cls-2" d="M47.683,98.7H29.955a1.566,1.566,0,1,1,0-3.132H47.683A1.566,1.566,0,0,1,47.683,98.7Z"/><path class="cls-2" d="M130.065,98.7H110.121a1.566,1.566,0,0,1,0-3.132h19.944A1.566,1.566,0,0,1,130.065,98.7Z"/><path class="cls-2" d="M52.231,70.649a1.586,1.586,0,0,1-1.119-.458L35.6,54.838a1.553,1.553,0,0,1-.017-2.2l0.017-.017a1.594,1.594,0,0,1,2.238,0L53.35,67.976a1.553,1.553,0,0,1,.017,2.2l-0.017.017A1.586,1.586,0,0,1,52.231,70.649Z"/><path class="cls-2" d="M108.93,70.649a1.587,1.587,0,0,1-1.119-.458,1.554,1.554,0,0,1-.016-2.2l0.016-.016,17.5-17.311a1.594,1.594,0,0,1,2.238,0,1.554,1.554,0,0,1,.016,2.2l-0.016.016-17.5,17.311A1.587,1.587,0,0,1,108.93,70.649Z"/><path class="cls-2" d="M63.6,62.583a1.584,1.584,0,0,1-1.435-.9l-4.357-9.244a1.559,1.559,0,0,1,.749-2.073l0.016-.007a1.59,1.59,0,0,1,2.1.753l4.357,9.244a1.559,1.559,0,0,1-.749,2.073l-0.016.007A1.591,1.591,0,0,1,63.6,62.583Z"/><path class="cls-2" d="M35.308,118.3a1.584,1.584,0,0,1-1.435-.9,1.559,1.559,0,0,1,.749-2.073l0.016-.007,14.023-6.471a1.59,1.59,0,0,1,2.1.753,1.559,1.559,0,0,1-.749,2.073L50,111.678l-14.023,6.475A1.591,1.591,0,0,1,35.308,118.3Z"/><path class="cls-2" d="M110.122,84.886a1.584,1.584,0,0,1-1.435-.9,1.559,1.559,0,0,1,.749-2.073l0.016-.007,4.626-2.135a1.59,1.59,0,0,1,2.1.753,1.559,1.559,0,0,1-.749,2.073l-0.016.007-4.626,2.135A1.591,1.591,0,0,1,110.122,84.886Z"/><path class="cls-2" d="M42.867,84.969a1.594,1.594,0,0,1-.538-0.095l-6.165-2.219a1.561,1.561,0,0,1-.951-1.992l0.005-.014a1.587,1.587,0,0,1,2.028-.936l6.162,2.218a1.561,1.561,0,0,1,.951,1.992l-0.005.014A1.582,1.582,0,0,1,42.867,84.969Z"/><path class="cls-2" d="M126.677,115.145a1.593,1.593,0,0,1-.538-0.095l-14.245-5.128a1.561,1.561,0,0,1-.951-1.992l0.005-.014a1.587,1.587,0,0,1,2.028-.936l14.241,5.128a1.561,1.561,0,0,1,.951,1.992l-0.005.014A1.582,1.582,0,0,1,126.677,115.145Z"/><path class="cls-2" d="M97.488,61.256a1.592,1.592,0,0,1-.638-0.133,1.559,1.559,0,0,1-.816-2.048l0.007-.017,4.013-9a1.589,1.589,0,0,1,2.086-.8,1.559,1.559,0,0,1,.816,2.048l-0.007.017-4.013,9A1.584,1.584,0,0,1,97.488,61.256Z"/></svg>